_________________________  Visit us at _________________________
  
http://p2pdl.com  ____________________________  http://p2pdl.com


IP Man 2 2010 BRRip 720p x264 AAC - PRiSTiNE

Genre: Action | Biography | History
Plot: Centering on Ip Man's migration to Hong Kong in 1949 as he 
attempts to propagate his discipline of Wing Chun martial arts.
Director: Wilson Yip
Stars: Donnie Yen, Xiaoming Huang, Sammo Hung Kam-Bo
Rated: Rated R for violence

Info: 
http://www.imdb.com/title/tt1386932/

General
Complete name                  : IP Man 2 2010 BRRip 720p x264 AAC - PRiSTiNE.mp4
Format                         : MPEG-4
Format profile                 : Base Media
Codec ID                       : isom
File size                      : 604 MiB
Duration                       : 1h 48mn
Overall bit rate mode          : Variable
Overall bit rate               : 782 Kbps

Source                         : 720p.Blu-ray.DTS.x264-ViSTA (Thanks)

Video
Format                         : AVC
Format/Info                    : Advanced Video Codec
Format profile                 : High@L4.1
Format settings, CABAC         : Yes
Format settings, ReFrames      : 8 frames
Bit rate                       : 699 Kbps
Width                          : 1 280 pixels
Height                         : 544 pixels
Display aspect ratio           : 2.35:1
Frame rate mode                : Constant
Frame rate                     : 24.000 fps
Bit depth                      : 8 bits
Scan type                      : Progressive
Bits/(Pixel*Frame)             : 0.042
Stream size                    : 540 MiB (89%)
Writing library                : x264 core 129 r2245 bc13772

Audio
Format/Info                    : Advanced Audio Codec
Bit rate mode                  : Variable
Bit rate                       : 79.9 Kbps
Channel(s)                     : 2 channels
Channel positions              : Front: L R
Sampling rate                  : 48.0 KHz / 24.0 KHz
Stream size                    : 61.8 MiB (10%)
Language                       : Chinese

Subtitle                       : Yes (English)

Screens: 
http://imgr.us/images/yj4gncvip8ptwxuwc09.jpg 
http://imgr.us/images/iznmsizh27i33wnrq9p.jpg 
http://imgr.us/images/j610nyhm5go25dj5q93w.jpg 
http://imgr.us/images/z2zs3kqoz1nt5uydpm.jpg

Thumbs: 
http://imgr.us/images/am2g837wholc0p2207e1.jpg
----------------------------------------------------------------------------------------------------
Encoded using revolutionary 10bit encoding, which enables us to provide you more crispier 
and sharper images at small sizes, just make sure you follow our instructions without a fault.
Recommend to you to use latest version of VLC player. Install K-Lite Codec Pack or shark007 codecs
in case of any kind of problem in playback (For non-VLC Media Player users). Alternatively, install
Core AVC codecs, the fastest decoder that there is coupled with Community Center Codec Pack and play
on Windows Media Player Classic. Check sample to be sure.
Enjoy!